<mxfile host="Electron" agent="Mozilla/5.0 (Windows NT 10.0; Win64; x64) AppleWebKit/537.36 (KHTML, like Gecko) draw.io/26.2.15 Chrome/134.0.6998.205 Electron/35.2.1 Safari/537.36" version="26.2.15">
  <diagram name="Page-1" id="mS_BXicv8AF76-dV0u5H">
    <mxGraphModel dx="856" dy="555" grid="1" gridSize="10" guides="1" tooltips="1" connect="1" arrows="1" fold="1" page="1" pageScale="1" pageWidth="850" pageHeight="1100" math="0" shadow="0">
      <root>
        <mxCell id="0" />
        <mxCell id="1" parent="0" />
        <mxCell id="g7pvbav3bgI4WZNxd7Y0-2" style="edgeStyle=orthogonalEdgeStyle;rounded=0;orthogonalLoop=1;jettySize=auto;html=1;" edge="1" parent="1">
          <mxGeometry relative="1" as="geometry">
            <mxPoint x="241" y="100" as="targetPoint" />
            <mxPoint x="241" y="60" as="sourcePoint" />
          </mxGeometry>
        </mxCell>
        <mxCell id="g7pvbav3bgI4WZNxd7Y0-1" value="Start" style="ellipse;whiteSpace=wrap;html=1;fontSize=14;" vertex="1" parent="1">
          <mxGeometry x="177" y="10" width="120" height="50" as="geometry" />
        </mxCell>
        <mxCell id="g7pvbav3bgI4WZNxd7Y0-5" style="edgeStyle=orthogonalEdgeStyle;rounded=0;orthogonalLoop=1;jettySize=auto;html=1;entryX=0.5;entryY=0;entryDx=0;entryDy=0;" edge="1" parent="1" source="g7pvbav3bgI4WZNxd7Y0-3" target="g7pvbav3bgI4WZNxd7Y0-4">
          <mxGeometry relative="1" as="geometry" />
        </mxCell>
        <mxCell id="g7pvbav3bgI4WZNxd7Y0-3" value="Display Report" style="rounded=0;whiteSpace=wrap;html=1;" vertex="1" parent="1">
          <mxGeometry x="181" y="100" width="120" height="50" as="geometry" />
        </mxCell>
        <mxCell id="g7pvbav3bgI4WZNxd7Y0-8" style="edgeStyle=orthogonalEdgeStyle;rounded=0;orthogonalLoop=1;jettySize=auto;html=1;" edge="1" parent="1" source="g7pvbav3bgI4WZNxd7Y0-4">
          <mxGeometry relative="1" as="geometry">
            <mxPoint x="501" y="240" as="targetPoint" />
          </mxGeometry>
        </mxCell>
        <mxCell id="g7pvbav3bgI4WZNxd7Y0-14" value="Selected date or&amp;nbsp;&lt;div&gt;Department&lt;/div&gt;" style="edgeLabel;html=1;align=center;verticalAlign=middle;resizable=0;points=[];" vertex="1" connectable="0" parent="g7pvbav3bgI4WZNxd7Y0-8">
          <mxGeometry x="-0.0598" y="1" relative="1" as="geometry">
            <mxPoint as="offset" />
          </mxGeometry>
        </mxCell>
        <mxCell id="g7pvbav3bgI4WZNxd7Y0-4" value="Select EmployeeName,ID,date or Department" style="rhombus;whiteSpace=wrap;html=1;" vertex="1" parent="1">
          <mxGeometry x="126" y="190" width="230" height="100" as="geometry" />
        </mxCell>
        <mxCell id="g7pvbav3bgI4WZNxd7Y0-6" value="" style="endArrow=classic;html=1;rounded=0;entryX=0.538;entryY=0.025;entryDx=0;entryDy=0;entryPerimeter=0;" edge="1" parent="1" target="g7pvbav3bgI4WZNxd7Y0-7">
          <mxGeometry width="50" height="50" relative="1" as="geometry">
            <mxPoint x="241" y="290" as="sourcePoint" />
            <mxPoint x="241" y="340" as="targetPoint" />
          </mxGeometry>
        </mxCell>
        <mxCell id="g7pvbav3bgI4WZNxd7Y0-13" value="&lt;span style=&quot;font-size: 12px;&quot;&gt;Searched by EmployeeName or ID&lt;/span&gt;" style="edgeLabel;html=1;align=center;verticalAlign=middle;resizable=0;points=[];" vertex="1" connectable="0" parent="g7pvbav3bgI4WZNxd7Y0-6">
          <mxGeometry x="-0.0136" y="2" relative="1" as="geometry">
            <mxPoint as="offset" />
          </mxGeometry>
        </mxCell>
        <mxCell id="g7pvbav3bgI4WZNxd7Y0-17" style="edgeStyle=orthogonalEdgeStyle;rounded=0;orthogonalLoop=1;jettySize=auto;html=1;" edge="1" parent="1" source="g7pvbav3bgI4WZNxd7Y0-7">
          <mxGeometry relative="1" as="geometry">
            <mxPoint x="514" y="390" as="targetPoint" />
          </mxGeometry>
        </mxCell>
        <mxCell id="g7pvbav3bgI4WZNxd7Y0-7" value="Enter EmployeeName or ID" style="shape=parallelogram;perimeter=parallelogramPerimeter;whiteSpace=wrap;html=1;fixedSize=1;" vertex="1" parent="1">
          <mxGeometry x="126" y="370" width="210" height="40" as="geometry" />
        </mxCell>
        <mxCell id="g7pvbav3bgI4WZNxd7Y0-18" style="edgeStyle=orthogonalEdgeStyle;rounded=0;orthogonalLoop=1;jettySize=auto;html=1;entryX=0.5;entryY=0;entryDx=0;entryDy=0;" edge="1" parent="1">
          <mxGeometry relative="1" as="geometry">
            <mxPoint x="587" y="257.5" as="sourcePoint" />
            <mxPoint x="587" y="330" as="targetPoint" />
          </mxGeometry>
        </mxCell>
        <mxCell id="g7pvbav3bgI4WZNxd7Y0-15" value="Selected date or Department" style="shape=parallelogram;perimeter=parallelogramPerimeter;whiteSpace=wrap;html=1;fixedSize=1;" vertex="1" parent="1">
          <mxGeometry x="493" y="222.5" width="190" height="35" as="geometry" />
        </mxCell>
        <mxCell id="g7pvbav3bgI4WZNxd7Y0-20" style="edgeStyle=orthogonalEdgeStyle;rounded=0;orthogonalLoop=1;jettySize=auto;html=1;entryX=0.5;entryY=0;entryDx=0;entryDy=0;" edge="1" parent="1" source="g7pvbav3bgI4WZNxd7Y0-16" target="g7pvbav3bgI4WZNxd7Y0-19">
          <mxGeometry relative="1" as="geometry" />
        </mxCell>
        <mxCell id="g7pvbav3bgI4WZNxd7Y0-21" value="Yes" style="edgeLabel;html=1;align=center;verticalAlign=middle;resizable=0;points=[];" vertex="1" connectable="0" parent="g7pvbav3bgI4WZNxd7Y0-20">
          <mxGeometry x="-0.2286" y="-1" relative="1" as="geometry">
            <mxPoint as="offset" />
          </mxGeometry>
        </mxCell>
        <mxCell id="g7pvbav3bgI4WZNxd7Y0-22" style="edgeStyle=orthogonalEdgeStyle;rounded=0;orthogonalLoop=1;jettySize=auto;html=1;" edge="1" parent="1" source="g7pvbav3bgI4WZNxd7Y0-16">
          <mxGeometry relative="1" as="geometry">
            <mxPoint x="710" y="390" as="targetPoint" />
          </mxGeometry>
        </mxCell>
        <mxCell id="g7pvbav3bgI4WZNxd7Y0-24" value="No" style="edgeLabel;html=1;align=center;verticalAlign=middle;resizable=0;points=[];" vertex="1" connectable="0" parent="g7pvbav3bgI4WZNxd7Y0-22">
          <mxGeometry x="-0.068" y="-1" relative="1" as="geometry">
            <mxPoint as="offset" />
          </mxGeometry>
        </mxCell>
        <mxCell id="g7pvbav3bgI4WZNxd7Y0-16" value="Is Data Found?" style="rhombus;whiteSpace=wrap;html=1;" vertex="1" parent="1">
          <mxGeometry x="513" y="330" width="146" height="120" as="geometry" />
        </mxCell>
        <mxCell id="g7pvbav3bgI4WZNxd7Y0-27" style="edgeStyle=orthogonalEdgeStyle;rounded=0;orthogonalLoop=1;jettySize=auto;html=1;" edge="1" parent="1" source="g7pvbav3bgI4WZNxd7Y0-19" target="g7pvbav3bgI4WZNxd7Y0-26">
          <mxGeometry relative="1" as="geometry" />
        </mxCell>
        <mxCell id="g7pvbav3bgI4WZNxd7Y0-19" value="Calculate total hours worked, attendance status" style="rounded=0;whiteSpace=wrap;html=1;" vertex="1" parent="1">
          <mxGeometry x="526" y="520" width="120" height="60" as="geometry" />
        </mxCell>
        <mxCell id="g7pvbav3bgI4WZNxd7Y0-25" value="DisplayMessage:&lt;div&gt;Data is not found&lt;/div&gt;" style="shape=parallelogram;perimeter=parallelogramPerimeter;whiteSpace=wrap;html=1;fixedSize=1;" vertex="1" parent="1">
          <mxGeometry x="698" y="363" width="120" height="60" as="geometry" />
        </mxCell>
        <mxCell id="g7pvbav3bgI4WZNxd7Y0-29" style="edgeStyle=orthogonalEdgeStyle;rounded=0;orthogonalLoop=1;jettySize=auto;html=1;entryX=0.5;entryY=0;entryDx=0;entryDy=0;" edge="1" parent="1" source="g7pvbav3bgI4WZNxd7Y0-26" target="g7pvbav3bgI4WZNxd7Y0-28">
          <mxGeometry relative="1" as="geometry" />
        </mxCell>
        <mxCell id="g7pvbav3bgI4WZNxd7Y0-26" value="Display report" style="shape=parallelogram;perimeter=parallelogramPerimeter;whiteSpace=wrap;html=1;fixedSize=1;" vertex="1" parent="1">
          <mxGeometry x="526" y="650" width="120" height="60" as="geometry" />
        </mxCell>
        <mxCell id="g7pvbav3bgI4WZNxd7Y0-31" style="edgeStyle=orthogonalEdgeStyle;rounded=0;orthogonalLoop=1;jettySize=auto;html=1;entryX=0.5;entryY=0;entryDx=0;entryDy=0;" edge="1" parent="1" source="g7pvbav3bgI4WZNxd7Y0-28" target="g7pvbav3bgI4WZNxd7Y0-30">
          <mxGeometry relative="1" as="geometry" />
        </mxCell>
        <mxCell id="g7pvbav3bgI4WZNxd7Y0-32" value="Yes" style="edgeLabel;html=1;align=center;verticalAlign=middle;resizable=0;points=[];" vertex="1" connectable="0" parent="g7pvbav3bgI4WZNxd7Y0-31">
          <mxGeometry x="-0.32" y="-1" relative="1" as="geometry">
            <mxPoint as="offset" />
          </mxGeometry>
        </mxCell>
        <mxCell id="g7pvbav3bgI4WZNxd7Y0-28" value="Choose to print report" style="rhombus;whiteSpace=wrap;html=1;" vertex="1" parent="1">
          <mxGeometry x="511" y="780" width="150" height="80" as="geometry" />
        </mxCell>
        <mxCell id="g7pvbav3bgI4WZNxd7Y0-34" style="edgeStyle=orthogonalEdgeStyle;rounded=0;orthogonalLoop=1;jettySize=auto;html=1;" edge="1" parent="1" source="g7pvbav3bgI4WZNxd7Y0-30" target="g7pvbav3bgI4WZNxd7Y0-33">
          <mxGeometry relative="1" as="geometry" />
        </mxCell>
        <mxCell id="g7pvbav3bgI4WZNxd7Y0-30" value="Send to printer" style="rounded=0;whiteSpace=wrap;html=1;" vertex="1" parent="1">
          <mxGeometry x="526" y="910" width="120" height="60" as="geometry" />
        </mxCell>
        <mxCell id="g7pvbav3bgI4WZNxd7Y0-36" style="edgeStyle=orthogonalEdgeStyle;rounded=0;orthogonalLoop=1;jettySize=auto;html=1;entryX=0;entryY=0.5;entryDx=0;entryDy=0;" edge="1" parent="1" source="g7pvbav3bgI4WZNxd7Y0-33" target="g7pvbav3bgI4WZNxd7Y0-35">
          <mxGeometry relative="1" as="geometry">
            <mxPoint x="700" y="1050" as="targetPoint" />
          </mxGeometry>
        </mxCell>
        <mxCell id="g7pvbav3bgI4WZNxd7Y0-33" value="HardCopy Printed" style="rounded=0;whiteSpace=wrap;html=1;" vertex="1" parent="1">
          <mxGeometry x="524" y="1020" width="124" height="60" as="geometry" />
        </mxCell>
        <mxCell id="g7pvbav3bgI4WZNxd7Y0-35" value="End" style="ellipse;whiteSpace=wrap;html=1;" vertex="1" parent="1">
          <mxGeometry x="760" y="1030" width="80" height="40" as="geometry" />
        </mxCell>
        <mxCell id="g7pvbav3bgI4WZNxd7Y0-38" value="" style="endArrow=classic;html=1;rounded=0;entryX=0.5;entryY=0;entryDx=0;entryDy=0;" edge="1" parent="1" target="g7pvbav3bgI4WZNxd7Y0-35">
          <mxGeometry width="50" height="50" relative="1" as="geometry">
            <mxPoint x="661" y="820" as="sourcePoint" />
            <mxPoint x="770" y="820" as="targetPoint" />
            <Array as="points">
              <mxPoint x="800" y="820" />
            </Array>
          </mxGeometry>
        </mxCell>
        <mxCell id="g7pvbav3bgI4WZNxd7Y0-40" value="No" style="edgeLabel;html=1;align=center;verticalAlign=middle;resizable=0;points=[];" vertex="1" connectable="0" parent="g7pvbav3bgI4WZNxd7Y0-38">
          <mxGeometry x="-0.7232" y="-1" relative="1" as="geometry">
            <mxPoint as="offset" />
          </mxGeometry>
        </mxCell>
        <mxCell id="g7pvbav3bgI4WZNxd7Y0-41" value="" style="endArrow=classic;html=1;rounded=0;" edge="1" parent="1">
          <mxGeometry width="50" height="50" relative="1" as="geometry">
            <mxPoint x="810" y="390" as="sourcePoint" />
            <mxPoint x="830" y="1040" as="targetPoint" />
            <Array as="points">
              <mxPoint x="840" y="390" />
            </Array>
          </mxGeometry>
        </mxCell>
      </root>
    </mxGraphModel>
  </diagram>
</mxfile>
